# xmcd
#
# Track frame offsets: 
#        150
#        26552
#        47733
#        83004
#        100294
#
# Disc length: 1691 seconds
#
# Revision: 0
# Processed by: cddbd v1.5.2PL0 Copyright (c) Steve Scherf et al.
# Submitted via: ExactAudioCopy v1.0b1
#
DISCID=33069905
DTITLE=The Allman Brothers Band - 03-26-09 Beacon Theatre (Disc3)
DYEAR=2009
DGENRE=Blues
TTITLE0=Hoochie Coochie Man
TTITLE1=Please Call Home
TTITLE2=Leave My Blues At Home
TTITLE3=Crowd noise
TTITLE4=Statesboro Blues
EXTD=
EXTT0=
EXTT1=
EXTT2=
EXTT3=
EXTT4=
PLAYORDER=
